<?xml version="1.0" encoding="utf-8"?>
<!-- Generator: Adobe Illustrator 28.2.0, SVG Export Plug-In . SVG Version: 6.00 Build 0)  -->
<svg version="1.0" id="Calque_1" xmlns="http://www.w3.org/2000/svg" xmlns:xlink="http://www.w3.org/1999/xlink" x="0px" y="0px"
	 viewBox="0 0 300 47" style="enable-background:new 0 0 300 47;" xml:space="preserve">
<style type="text/css">
	.st0{fill:#ED1C24;}
</style>
<path class="st0" d="M4.9,10.5h13.4l6.9,8.8l6.7-8.8h13v34.9H30.6v-17h-0.1l-6.2,8.2l-6.4-8.2h-0.1v17H4.9V10.5z"/>
<path class="st0" d="M128.4,10.5h14.4v34.9h-14.4V10.5z"/>
<path class="st0" d="M146.9,10.5H160l10.3,14.9l0.1,0V10.5h12.9v34.9h-13.1L160,30.4l-0.1,0v14.8h-12.9V10.5z"/>
<path class="st0" d="M187.5,45.3V10.5h14.6c6.7,0,11.9,2.1,15.5,5.4c3.1,2.9,5.1,6.9,5.1,12c0,4.8-1.8,9-5,11.9
	c-3.6,3.5-8.9,5.5-15.5,5.5H187.5z M201.9,34h0.3c2.4,0,4.2-0.8,5.4-2c1-1,1.6-2.4,1.6-4.1c0-1.7-0.6-3.2-1.6-4.2
	c-1-1.1-2.6-1.9-5.3-1.9h-0.4V34z"/>
<path class="st0" d="M226.1,10.5h25.1v11.7h-10.7V24h8.7v8.3h-8.7v2h11.4v11.1h-25.8V10.5z"/>
<path class="st0" d="M255.4,10.5h14.3c7.2,0,17,1.8,17,11.1c0,3.8-1.8,6.5-4.4,8.3l7.9,15.5h-15.1L270,33.9h-0.2v11.5h-14.4V10.5z
	 M270.9,25.9c2.3,0,3.3-1.2,3.3-2.7s-1.1-2.6-3.3-2.6h-1.1v5.3H270.9z"/>
<path class="st0" d="M87,11.6c0.3-0.4,0.5-0.8,0.7-1.2h-1.8C85.9,10.8,86.3,11.1,87,11.6z"/>
<path class="st0" d="M111.9,10.5l-5.5,18.5h-0.1L102,13.4c-4.1,0.4-7.1,2.6-8.5,6.6c-0.7,2.1-1.2,4.3-1.7,6.5L99,45.3h13.6
	l13.3-34.9H111.9z"/>
<path class="st0" d="M96.7,3.4C95,1.3,93,0.8,90.5,1.1c-3.7,0.3-6.6,1.9-8.2,5.3c-0.9,2-1.4,4.1-2,6.2c-0.2,0.7-0.3,1.4-0.5,2.2
	c-0.2-0.1-0.3-0.1-0.4-0.1c-0.2-0.2-0.5-0.4-0.7-0.5c-3-2.3-6.5-3.6-10.3-3.8c-7.9-0.4-15,4.4-17.7,11.9c-2.6,7.3-0.2,15.6,6,20.3
	c6.3,4.8,14.9,5,21.3,0.4c1.5-1.1,2.8-2.6,4.3-3.6c2.6-1.7,4.2-4.1,5-7.1c0.7-2.5,1.1-5,1.6-7.4c0.6-2.6,1.1-5.2,2-7.7
	c1.5-4.4,4.8-6.6,9.4-6.7c1,0,1.9,0,3.3,0C101.2,7.9,98.8,5.8,96.7,3.4z M94.4,3c-2,0.4-2.2,0.3-3-0.9C92.9,1.5,93.6,1.7,94.4,3z
	 M90.3,3.2c-1.2,1.1-1.6,1-2.7-0.3C89.1,2,89.2,2,90.3,3.2z M86.3,3.5c0.4,0.5,0.7,0.9,1,1.5C87,5.2,86.6,5.5,86,6.1
	c-0.3-0.5-0.6-1-1-1.5C85.3,4.3,85.7,4,86.3,3.5z M81.5,12.5c1.4,0.6,1.2,1.7,0.8,2.8C80.9,14.6,80.8,14.2,81.5,12.5z M73.4,15
	c2.2,0,4.1,1.8,4.1,4.1c0,2.3-1.8,4.1-4,4.1c-2.3,0-4.1-1.8-4.1-4.1C69.3,16.8,71.2,15,73.4,15z M58.5,38c-2.2,0-4.1-1.9-4-4.1
	c0-2.3,1.9-4.1,4.2-4.1c2.2,0.1,4,2,4,4.2C62.6,36.3,60.8,38,58.5,38z M60.6,25.2c-2.3,0-4.1-1.8-4.1-4.1c0-2.2,1.9-4,4.1-4
	c2.2,0,4.1,1.9,4,4.1C64.7,23.4,62.9,25.2,60.6,25.2z M70.1,43.9c-2.2,0-4.1-1.9-4-4.1c0-2.3,1.8-4,4.1-4c2.3,0,4.1,1.9,4.1,4.2
	C74.2,42.1,72.3,43.9,70.1,43.9z M79.4,34.7c-2.3,0-4.1-1.8-4.1-4c0-2.3,1.8-4.2,4.1-4.2c2.2,0,4.1,1.8,4.1,4.1
	C83.4,32.8,81.6,34.7,79.4,34.7z M83.1,11.7c-1.4-1-1.4-1-0.5-2.8C84,9.7,83.8,10.7,83.1,11.7z M84.4,8.6c-1.5-1.2-1.5-1.2-0.2-2.7
	c0.3,0.4,0.7,0.8,1,1.3C85,7.6,84.7,8.1,84.4,8.6z M85.9,32.6c-1.1-0.8-0.3-1.7-0.4-2.6C87.1,30.7,86.2,31.6,85.9,32.6z M87,28.9
	c-1.4-0.6-1.5-1.2-0.7-2.8C87.7,26.8,87.5,27.8,87,28.9z M87.7,25.3c-1.5-0.6-1.2-1.7-0.8-3C88.4,23.1,88.2,24.1,87.7,25.3z
	 M88.4,21.5c-1.4-0.9-1.4-0.9-0.7-2.9C89.1,19.3,88.9,20.4,88.4,21.5z M89.3,17.9c-1.5-0.8-1.5-1.1-0.6-2.7
	C90.2,15.8,89.9,16.8,89.3,17.9z M90.7,14.7c-1.5-0.7-1.6-1-0.4-2.7c0.4,0.5,0.8,0.9,1.2,1.3C91.2,13.8,90.9,14.2,90.7,14.7z
	 M92.3,12.2c-0.4-0.4-0.8-0.8-1.3-1.2c0.6-0.5,1-0.8,1.5-1.3c0.4,0.5,0.8,0.8,1.2,1.3C93.2,11.4,92.8,11.7,92.3,12.2z M93.7,9
	c1.7-0.9,1.7-0.9,2.8,0.4C95,10.5,95,10.5,93.7,9z M97.4,8.1c1.3-0.1,2.5-0.4,3.3,1.1C99.4,9.3,98.2,9.7,97.4,8.1z"/>
</svg>
